<?xml version="1.0" encoding="UTF-8" standalone="no"?>
<!-- Created with Inkscape (http://www.inkscape.org/) -->

<svg
   xmlns:dc="http://purl.org/dc/elements/1.1/"
   xmlns:cc="http://creativecommons.org/ns#"
   xmlns:rdf="http://www.w3.org/1999/02/22-rdf-syntax-ns#"
   xmlns:svg="http://www.w3.org/2000/svg"
   xmlns="http://www.w3.org/2000/svg"
   xmlns:sodipodi="http://sodipodi.sourceforge.net/DTD/sodipodi-0.dtd"
   xmlns:inkscape="http://www.inkscape.org/namespaces/inkscape"
   width="1050.1799"
   height="700.00006"
   id="svg2"
   version="1.1"
   inkscape:version="0.48.4 r9939"
   sodipodi:docname="forwardHoverIcon.svg">
  <defs
     id="defs4" />
  <sodipodi:namedview
     id="base"
     pagecolor="#ffffff"
     bordercolor="#666666"
     borderopacity="1.0"
     inkscape:pageopacity="0.0"
     inkscape:pageshadow="2"
     inkscape:zoom="0.49792743"
     inkscape:cx="498.61711"
     inkscape:cy="334.83515"
     inkscape:document-units="px"
     inkscape:current-layer="layer1"
     showgrid="false"
     inkscape:window-width="1366"
     inkscape:window-height="694"
     inkscape:window-x="-2"
     inkscape:window-y="-3"
     inkscape:window-maximized="1"
     fit-margin-top="0"
     fit-margin-left="0"
     fit-margin-right="0"
     fit-margin-bottom="0">
    <sodipodi:guide
       position="508.39395,-77.494797"
       orientation="0,744.09448"
       id="guide3888" />
    <sodipodi:guide
       position="1252.4884,-77.494797"
       orientation="-1052.3622,0"
       id="guide3890" />
    <sodipodi:guide
       position="1252.4884,974.8674"
       orientation="0,-744.09448"
       id="guide3892" />
    <sodipodi:guide
       position="508.39395,974.8674"
       orientation="1052.3622,0"
       id="guide3894" />
    <sodipodi:guide
       position="508.39395,-77.494797"
       orientation="0,744.09448"
       id="guide3896" />
    <sodipodi:guide
       position="1252.4884,-77.494797"
       orientation="-1052.3622,0"
       id="guide3898" />
    <sodipodi:guide
       position="1252.4884,974.8674"
       orientation="0,-744.09448"
       id="guide3900" />
    <sodipodi:guide
       position="508.39395,974.8674"
       orientation="1052.3622,0"
       id="guide3902" />
  </sodipodi:namedview>
  <metadata
     id="metadata7">
    <rdf:RDF>
      <cc:Work
         rdf:about="">
        <dc:format>image/svg+xml</dc:format>
        <dc:type
           rdf:resource="http://purl.org/dc/dcmitype/StillImage" />
        <dc:title></dc:title>
      </cc:Work>
    </rdf:RDF>
  </metadata>
  <g
     inkscape:groupmode="layer"
     id="layer2"
     inkscape:label="Sfondo"
     transform="translate(638.92303,25.83248)">
    <g
       id="g3013"
       transform="translate(-290.12959,-382.60527)">
      <path
         inkscape:connector-curvature="0"
         id="path3775-92"
         d="m 176.2965,356.77281 c -96.64983,0 -175,78.35017 -175,175 0,96.64983 78.35017,175 175,175 96.64983,0 175,-78.35017 175,-175 0,-96.64983 -78.35017,-175 -175,-175 z m 0,41.15625 c 73.9119,0 133.84375,59.93185 133.84375,133.84375 0,73.9119 -59.93185,133.8125 -133.84375,133.8125 -73.9119,0 -133.8125,-59.9006 -133.8125,-133.8125 0,-73.9119 59.9006,-133.84375 133.8125,-133.84375 z"
         style="fill:#000000" />
      <path
         inkscape:connector-curvature="0"
         id="rect3904-0"
         d="m 198.90585,426.21979 0,210.12519 0.98085,0.98085 L 304.93908,532.27345 198.90585,426.21979 z"
         style="fill:#000000" />
      <path
         inkscape:connector-curvature="0"
         id="rect3904-2-7"
         d="m 91.65069,426.21979 0,210.12519 0.98085,0.98085 L 197.68392,532.27345 91.65069,426.21979 z"
         style="fill:#000000" />
    </g>
  </g>
  <g
     inkscape:label="Livello 1"
     inkscape:groupmode="layer"
     id="layer1"
     transform="translate(508.39395,-274.86732)">
    <g
       id="g3007"
       transform="matrix(1,0,0,0.99985464,-288.83309,324.23673)">
      <path
         transform="translate(130.52908,300.6998)"
         sodipodi:nodetypes="ccccccc"
         inkscape:connector-curvature="0"
         id="path3775-9"
         d="M 174.94202,-0.01025452 C 106.12722,-0.96588452 39.761366,43.264556 13.694396,106.87185 c -27.21518,62.48707 -13.13344976,140.11027 34.57062,188.85747 45.89833,49.3972 121.515724,67.4207 184.831904,44.36555 C 298.72573,317.8004 347.11417,253.33046 349.71432,183.99523 354.07088,116.59329 315.00295,49.222146 254.61104,19.134646 230.0767,6.5266755 202.52018,-0.05224452 174.94202,-0.01025452 z"
         style="fill:#cccccc;fill-opacity:0.94117647" />
      <path
         inkscape:connector-curvature="0"
         id="path3775"
         d="m 305.52908,300.6998 c -96.64983,0 -175,78.35017 -175,175 0,96.64983 78.35017,175 175,175 96.64983,0 175,-78.35017 175,-175 0,-96.64983 -78.35017,-175 -175,-175 z m 0,41.15625 c 73.9119,0 133.84375,59.93185 133.84375,133.84375 0,73.9119 -59.93185,133.8125 -133.84375,133.8125 -73.9119,0 -133.8125,-59.9006 -133.8125,-133.8125 0,-73.9119 59.9006,-133.84375 133.8125,-133.84375 z"
         style="fill:#000000" />
      <path
         inkscape:connector-curvature="0"
         id="rect3904"
         d="m 328.13843,370.14678 0,210.12519 0.98085,0.98085 L 434.17166,476.20044 328.13843,370.14678 z"
         style="fill:#000000" />
      <path
         inkscape:connector-curvature="0"
         id="rect3904-2"
         d="m 220.88327,370.14678 0,210.12519 0.98085,0.98085 L 326.9165,476.20044 220.88327,370.14678 z"
         style="fill:#000000" />
    </g>
    <g
       id="g3164"
       transform="translate(61.256845,-25.83246)">
      <path
         inkscape:connector-curvature="0"
         id="path3775-8"
         d="m 305.52908,300.6998 c -96.64983,0 -175,78.35017 -175,175 0,96.64983 78.35017,175 175,175 96.64983,0 175,-78.35017 175,-175 0,-96.64983 -78.35017,-175 -175,-175 z m 0,41.15625 c 73.9119,0 133.84375,59.93185 133.84375,133.84375 0,73.9119 -59.93185,133.8125 -133.84375,133.8125 -73.9119,0 -133.8125,-59.9006 -133.8125,-133.8125 0,-73.9119 59.9006,-133.84375 133.8125,-133.84375 z"
         style="fill:#000000" />
      <path
         inkscape:connector-curvature="0"
         id="rect3827"
         d="m 239.49783,377.71542 0,195.96875 44.03125,0 0,-195.96875 -44.03125,0 z m 88.03125,0 0,195.96875 44.03125,0 0,-195.96875 -44.03125,0 z"
         style="fill:#000000" />
    </g>
    <g
       id="g3205"
       transform="translate(61.256845,324.16758)">
      <path
         inkscape:connector-curvature="0"
         id="path3775-3"
         d="m 305.52908,300.6998 c -96.64983,0 -175,78.35017 -175,175 0,96.64983 78.35017,175 175,175 96.64983,0 175,-78.35017 175,-175 0,-96.64983 -78.35017,-175 -175,-175 z m 0,41.15625 c 73.9119,0 133.84375,59.93185 133.84375,133.84375 0,73.9119 -59.93185,133.8125 -133.84375,133.8125 -73.9119,0 -133.8125,-59.9006 -133.8125,-133.8125 0,-73.9119 59.9006,-133.84375 133.8125,-133.84375 z"
         style="fill:#000000" />
      <path
         inkscape:connector-curvature="0"
         id="rect3827-7"
         d="m 239.49783,377.71542 0,195.96875 44.03125,0 0,-195.96875 -44.03125,0 z m 88.03125,0 0,195.96875 44.03125,0 0,-195.96875 -44.03125,0 z"
         style="fill:#000000" />
      <path
         transform="translate(130.52908,300.6998)"
         inkscape:connector-curvature="0"
         id="path3829"
         d="m 157.78261,306.81552 c -43.0516,-5.37173 -82.938613,-34.37264 -102.294209,-74.37574 -9.790272,-20.234 -12.606088,-33.07487 -12.612007,-57.51405 -0.0051,-21.15852 1.289674,-28.91385 7.775788,-46.57394 12.320483,-33.545623 40.180485,-62.246373 73.758078,-75.983925 18.22801,-7.457595 30.62985,-9.836607 51.1236,-9.806903 35.63696,0.05165 65.23449,12.072242 91.39978,37.12063 17.1501,16.418031 28.0947,34.421988 35.8919,59.042458 3.76315,11.88254 4.04503,14.39847 4.05589,36.20168 0.01,20.64219 -0.3854,24.69959 -3.32393,34.0824 -7.9312,25.32466 -18.61825,43.56626 -35.21764,60.11258 -21.3136,21.24543 -47.74608,34.04742 -77.89494,37.72669 -14.32892,1.74864 -18.42429,1.74465 -32.66231,-0.0318 l 0,-7e-5 z m -3.55025,-131.17974 0,-98.696957 -22.7216,0 -22.7216,0 0,98.696957 0,98.69695 22.7216,0 22.7216,0 0,-98.69695 z m 88.04621,0 0,-98.696957 -22.7216,0 -22.7216,0 0,98.696957 0,98.69695 22.7216,0 22.7216,0 0,-98.69695 z"
         style="fill:#cccccc;fill-opacity:0.75294118;stroke:none" />
    </g>
    <g
       id="g3250"
       transform="translate(-638.92303,324.16758)">
      <path
         inkscape:connector-curvature="0"
         id="path3775-1"
         d="m 305.52908,300.6998 c -96.64983,0 -175,78.35017 -175,175 0,96.64983 78.35017,175 175,175 96.64983,0 175,-78.35017 175,-175 0,-96.64983 -78.35017,-175 -175,-175 z m 0,41.15625 c 73.9119,0 133.84375,59.93185 133.84375,133.84375 0,73.9119 -59.93185,133.8125 -133.84375,133.8125 -73.9119,0 -133.8125,-59.9006 -133.8125,-133.8125 0,-73.9119 59.9006,-133.84375 133.8125,-133.84375 z"
         style="fill:#000000" />
      <path
         inkscape:connector-curvature="0"
         id="rect3904-4"
         d="m 268.13843,370.14678 0,210.12519 0.98085,0.98085 L 374.17166,476.20044 268.13843,370.14678 z"
         style="fill:#000000" />
      <path
         transform="translate(130.52908,300.6998)"
         inkscape:connector-curvature="0"
         id="path3760"
         d="m 149.17993,305.46205 c -12.86929,-2.92323 -22.29695,-6.16982 -32.1127,-11.0586 C 83.080989,277.47644 58.876305,248.80031 47.264983,211.70632 43.560997,199.87342 43.262684,197.18742 43.24314,175.49377 43.22491,155.26221 43.667228,150.51056 46.481848,140.70132 63.927541,79.901271 119.30318,39.436914 180.97174,42.426211 c 19.10379,0.926029 33.73545,4.625263 50.91652,12.872923 15.72855,7.550382 24.12568,13.494097 36.88825,26.110498 16.64567,16.45504 28.83926,37.716428 35.2804,61.516738 4.53308,16.75001 4.54325,47.78718 0.0212,64.51965 -4.26104,15.76643 -15.75692,38.37518 -25.96449,51.06391 -16.28004,20.23727 -42.73748,37.68307 -68.02978,44.85822 -14.07227,3.99216 -47.48905,5.14105 -60.90386,2.0939 l -1e-5,0 z m 43.15265,-77.42462 52.52936,-52.54376 -53.2395,-53.2537 C 162.34071,92.95043 137.90046,68.986263 137.31076,68.986263 c -0.5897,0 -1.07218,47.608857 -1.07218,105.797457 0,83.91906 0.36858,105.79745 1.78233,105.79745 0.98027,0 25.42053,-23.64469 54.31167,-52.54374 z"
         style="fill:#cccccc;fill-opacity:0.8;stroke:#000000;stroke-width:0.14201;stroke-linejoin:round;stroke-miterlimit:4;stroke-opacity:1;stroke-dasharray:none" />
    </g>
    <g
       id="g3303"
       transform="translate(-650.69723,-530.19774)">
      <path
         inkscape:connector-curvature="0"
         id="path3775-6"
         d="m 317.30328,805.06506 c -96.64983,0 -175,78.35017 -175,175 0,96.64984 78.35017,175.00004 175,175.00004 96.64983,0 175,-78.3502 175,-175.00004 0,-96.64983 -78.35017,-175 -175,-175 z m 0,41.15625 c 73.9119,0 133.84375,59.93185 133.84375,133.84375 0,73.91194 -59.93185,133.81254 -133.84375,133.81254 -73.9119,0 -133.8125,-59.9006 -133.8125,-133.81254 0,-73.9119 59.9006,-133.84375 133.8125,-133.84375 z"
         style="fill:#000000" />
      <path
         inkscape:connector-curvature="0"
         id="rect3904-1"
         d="m 279.91263,874.51204 0,210.12516 0.98085,0.9809 L 385.94586,980.5657 279.91263,874.51204 z"
         style="fill:#000000" />
    </g>
  </g>
</svg>
